#!OML:ASF I:\Actors\actors\Patient Classification 2\Patient 1\Session 1\actor1.ASF
:FULLY-SPECIFIED
:DEGREES
212
root -0.844846 18.6742 5.74812 1.04967 -1.45367 -2.61861
lowerback 9.54237 0.470968 0.536066
upperback 5.64156 0.668467 1.14324
thorax 0.493884 0.327761 0.819073
lowerneck -14.0513 -2.7611 -2.2663
upperneck 40.375 -4.8633 3.1395
head 17.2911 -1.90518 0.941086
rclavicle 1.21507e-014 1.02809e-014
rhumerus -102.764 8.93948 -109.445
rradius 99.7487
rwrist -61.3684
rhand 9.23065 -68.0247
rfingers 7.12502
rthumb 34.3963 -625.28
lclavicle 1.21507e-014 1.02809e-014
lhumerus -100.208 -9.22977 110.747
lradius 104.02
lwrist 87.6559
lhand -17.4796 9.31247
lfingers 7.12502
lthumb 8.7725 39.1102
rfemur 0 0 0
rtibia 0
rfoot 0 0
rtoes 0
lfemur -4.98228 -4.97061 -10.8781
ltibia 22.7245
lfoot -21.8003 12.4099
ltoes -56.8432
213
root -0.852348 18.6809 5.74528 1.28123 -1.39385 -2.40661
lowerback 9.46183 0.542395 0.367732
upperback 5.59062 0.749324 1.02986
thorax 0.483265 0.366191 0.789762
lowerneck -14.0577 -2.8071 -1.98408
upperneck 40.4566 -4.97717 3.0136
head 17.3284 -1.92321 0.813134
rclavicle -6.6422e-015 -9.04781e-015
rhumerus -102.833 9.52755 -108.708
rradius 99.7273
rwrist -61.4541
rhand 9.42341 -68.593
rfingers 7.12502
rthumb 34.5793 -624.754
lclavicle -6.6422e-015 -9.04781e-015
lhumerus -100.46 -10.7032 109.792
lradius 104.01
lwrist 87.2624
lhand -16.5374 9.29938
lfingers 7.12502
lthumb 9.68174 39.0569
rfemur 0 0 0
rtibia 0
rfoot 0 0
rtoes 0
lfemur -5.17265 -5.02018 -11.0689
ltibia 22.5264
lfoot -21.6627 12.5069
ltoes -56.8596
214
root -0.85082 18.6882 5.73726 1.56152 -1.47687 -2.19625
lowerback 9.39351 0.623154 0.272334
upperback 5.48371 0.848708 0.916207
thorax 0.408603 0.415573 0.717142
lowerneck -14.0189 -2.86257 -1.95923
upperneck 40.6007 -5.09108 3.04674
head 17.406 -1.9592 0.804916
rclavicle -2.44754e-015 -3.76448e-015
rhumerus -103.025 10.2493 -108.037
rradius 99.7831
rwrist -61.2939
rhand 9.42578 -68.8254
rfingers 7.12502
rthumb 34.5815 -624.522
lclavicle -2.44754e-015 -3.76448e-015
lhumerus -100.696 -12.1483 108.742
lradius 104.453
lwrist 88.0791
lhand -16.9786 9.96073
lfingers 7.12502
lthumb 9.25603 39.7376
rfemur 0 0 0
rtibia 0
rfoot 0 0
rtoes 0
lfemur -5.38556 -5.13546 -11.3097
ltibia 22.3027
lfoot -21.6281 12.7818
ltoes -56.8734
215
root -0.861496 18.6988 5.72871 2.01892 -1.95235 -1.61437
lowerback 9.1262 0.874371 -0.468895
upperback 5.32345 1.12373 0.739996
thorax 0.375121 0.539581 0.929498
lowerneck -13.9421 -2.91141 -1.82249
upperneck 40.6632 -5.17896 2.96241
head 17.4163 -1.98501 0.727538
rclavicle -9.21864e-015 4.42296e-015
rhumerus -103.236 11.0269 -107.441
rradius 99.9225
rwrist -60.94
rhand 9.33942 -68.8488
rfingers 7.12502
rthumb 34.4995 -624.48
lclavicle -9.21864e-015 4.42296e-015
lhumerus -100.886 -13.6228 107.763
lradius 105.006
lwrist 88.1411
lhand -18.2501 11.6104
lfingers 7.12502
lthumb 8.02897 41.4379
rfemur 0 0 0
rtibia 0
rfoot 0 0
rtoes 0
lfemur -5.78397 -5.35349 -11.9791
ltibia 22.104
lfoot -21.8015 13.4472
ltoes -56.7071
216
root -0.87108 18.7045 5.72617 2.21272 -1.93101 -1.32668
lowerback 9.02335 0.930996 -0.846949
upperback 5.26289 1.17092 0.677704
thorax 0.361918 0.556326 1.07438
lowerneck -13.8919 -2.93471 -1.64201
upperneck 40.6733 -5.2114 2.8132
head 17.3962 -1.99066 0.622189
rclavicle -1.42535e-014 -2.70844e-015
rhumerus -103.402 11.8919 -106.847
rradius 100.104
rwrist -60.6672
rhand 9.2511 -69.0497
rfingers 7.12502
rthumb 34.4157 -624.26
lclavicle -1.42535e-014 -2.70844e-015
lhumerus -100.952 -15.0659 106.917
lradius 104.974
lwrist 86.2353
lhand -16.6032 11.6526
lfingers 7.12502
lthumb 9.61818 41.413
rfemur 0 0 0
rtibia 0
rfoot 0 0
rtoes 0
lfemur -5.9577 -5.41739 -12.2549
ltibia 21.9547
lfoot -21.7521 13.5361
ltoes -56.6788
217
root -0.873202 18.7082 5.72005 2.25978 -1.98133 -1.40925
lowerback 9.11097 0.974624 -0.745035
upperback 5.23481 1.2358 0.694602
thorax 0.284803 0.591124 1.02725
lowerneck -13.8774 -2.95167 -1.52474
upperneck 40.7091 -5.22245 2.68321
head 17.4024 -1.99397 0.540529
rclavicle -1.01256e-015 -3.721e-015
rhumerus -103.475 12.8595 -106.124
rradius 100.345
rwrist -60.265
rhand 10.0126 -69.5369
rfingers 7.12502
rthumb 35.1383 -623.939
lclavicle -1.01256e-015 -3.721e-015
lhumerus -100.921 -16.4894 105.992
lradius 105.361
lwrist 86.1999
lhand -16.4435 11.9068
lfingers 7.12502
lthumb 9.77231 41.66
rfemur 0 0 0
rtibia 0
rfoot 0 0
rtoes 0
lfemur -5.95326 -5.32327 -12.138
ltibia 21.842
lfoot -21.7059 13.4909
ltoes -56.6663
218
root -0.876585 18.7102 5.71484 2.24366 -2.00634 -1.54784
lowerback 9.25987 0.998682 -0.59636
upperback 5.20796 1.27843 0.722742
thorax 0.176879 0.615618 0.966219
lowerneck -13.89 -2.96969 -1.4271
upperneck 40.8007 -5.22662 2.54011
head 17.4474 -1.99835 0.457332
rclavicle -3.72721e-017 -8.00108e-015
rhumerus -103.469 13.8887 -105.427
rradius 100.571
rwrist -59.9543
rhand 11.7739 -70.799
rfingers 7.12502
rthumb 36.8068 -623.087
lclavicle -3.72721e-017 -8.00108e-015
lhumerus -100.84 -17.8867 105.055
lradius 105.773
lwrist 86.1214
lhand -16.1453 12.1187
lfingers 7.12502
lthumb 10.06 41.8583
rfemur 0 0 0
rtibia 0
rfoot 0 0
rtoes 0
lfemur -5.91879 -5.25335 -11.9516
ltibia 21.8142
lfoot -21.7051 13.3608
ltoes -56.5809
219
root -0.87643 18.7126 5.70976 2.29262 -1.71468 -1.58867
lowerback 9.34363 0.901428 -0.48483
upperback 5.15507 1.15884 0.738466
thorax 0.0804986 0.558591 0.928706
lowerneck -13.9025 -2.98098 -1.39972
upperneck 40.8997 -5.22426 2.4595
head 17.5023 -2.00242 0.416261
rclavicle 4.47266e-016 -9.0944e-015
rhumerus -103.542 14.9719 -105.039
rradius 100.797
rwrist -60.2957
rhand 12.0478 -71.3769
rfingers 7.12502
rthumb 37.066 -622.576
lclavicle 4.47266e-016 -9.0944e-015
lhumerus -100.671 -19.2641 104.161
lradius 106.222
lwrist 85.8581
lhand -15.8149 12.3892
lfingers 7.12502
lthumb 10.3787 42.113
rfemur 0 0 0
rtibia 0
rfoot 0 0
rtoes 0
lfemur -6.06414 -5.40282 -11.8595
ltibia 21.8287
lfoot -21.6367 13.1769
ltoes -56.4523
220
root -0.873454 18.7171 5.70014 2.49971 -1.54402 -1.6091
lowerback 9.29852 0.837573 -0.419146
upperback 5.0575 1.08052 0.766724
thorax 0.00613592 0.521063 0.927805
lowerneck -13.8762 -2.99126 -1.4547
upperneck 40.944 -5.22114 2.45223
head 17.5224 -2.0103 0.424042
rclavicle 7.88771e-015 3.50979e-016
rhumerus -103.563 16.1283 -104.642
rradius 101.025
rwrist -60.1874
rhand 10.7074 -69.7753
rfingers 7.12502
rthumb 35.797 -623.859
lclavicle 7.88771e-015 3.50979e-016
lhumerus -100.375 -20.5932 103.34
lradius 106.58
lwrist 85.3617
lhand -15.4016 12.5887
lfingers 7.12502
lthumb 10.7774 42.2922
rfemur 0 0 0
rtibia 0
rfoot 0 0
rtoes 0
lfemur -6.3743 -5.50393 -11.8014
ltibia 21.8234
lfoot -21.5694 13.1257
ltoes -56.3979
221
root -0.869927 18.7239 5.684 2.88734 -1.95909 -1.58701
lowerback 9.11462 0.979936 -0.517409
upperback 4.90951 1.26213 0.792982
thorax -0.0527015 0.610187 0.994848
lowerneck -13.8073 -2.99195 -1.47442
upperneck 40.9161 -5.18604 2.38599
head 17.4845 -2.0094 0.405053
rclavicle -3.83903e-015 -9.93923e-017
rhumerus -103.42 17.2856 -104.112
rradius 101.126
rwrist -59.6842
rhand 11.5029 -69.9888
rfingers 7.12502
rthumb 36.5503 -623.832
lclavicle -3.83903e-015 -9.93923e-017
lhumerus -99.9548 -21.8601 102.617
lradius 106.78
lwrist 84.7514
lhand -14.8896 12.721
lfingers 7.12502
lthumb 11.2712 42.3982
rfemur 0 0 0
rtibia 0
rfoot 0 0
rtoes 0
lfemur -6.74889 -5.37178 -11.8456
ltibia 21.7964
lfoot -21.7095 13.3842
ltoes -56.3492
222
root -0.867164 18.7273 5.67265 3.02245 -1.96065 -1.5337
lowerback 9.13205 0.980721 -0.603454
upperback 4.83444 1.25721 0.836122
thorax -0.142597 0.606362 1.08697
lowerneck -13.7659 -2.9758 -1.54873
upperneck 40.9052 -5.11489 2.33781
head 17.4652 -1.99918 0.410338
rclavicle 2.31087e-015 2.31087e-015
rhumerus -103.07 18.2663 -103.642
rradius 101.127
rwrist -59.8291
rhand 10.4275 -69.3458
rfingers 7.12502
rthumb 35.5317 -624.224
lclavicle 2.31087e-015 2.31087e-015
lhumerus -99.4114 -23.1181 101.843
lradius 107.497
lwrist 86.2995
lhand -16.5174 13.8228
lfingers 7.12502
lthumb 9.70101 43.5794
rfemur 0 0 0
rtibia 0
rfoot 0 0
rtoes 0
lfemur -6.91425 -5.40153 -11.8928
ltibia 21.7572
lfoot -21.7495 13.3856
ltoes -56.2932
223
root -0.863633 18.7296 5.65996 3.13023 -2.01837 -1.43461
lowerback 9.20907 0.993265 -0.725126
upperback 4.75235 1.26433 0.84987
thorax -0.272747 0.608627 1.16664
lowerneck -13.8245 -2.95015 -1.76663
upperneck 41.0145 -5.04994 2.43767
head 17.5542 -1.99063 0.506553
rclavicle 9.67833e-015 1.49089e-016
rhumerus -102.266 19.0032 -103.003
rradius 101.056
rwrist -59.7636
rhand 8.90325 -69.2009
rfingers 7.12502
rthumb 34.0854 -624.034
lclavicle 9.67833e-015 1.49089e-016
lhumerus -98.8942 -24.3287 101.331
lradius 107.122
lwrist 84.3369
lhand -14.3518 13.2877
lfingers 7.12502
lthumb 11.7899 42.9358
rfemur 0 0 0
rtibia 0
rfoot 0 0
rtoes 0
lfemur -7.04156 -5.35374 -11.9981
ltibia 21.7081
lfoot -21.7345 13.3805
ltoes -56.2027
224
root -0.858777 18.7313 5.64747 3.19652 -2.10519 -1.37515
lowerback 9.33157 1.00296 -0.802711
upperback 4.67901 1.27067 0.869728
thorax -0.41796 0.611342 1.2273
lowerneck -13.9053 -2.91248 -1.98781
upperneck 41.1583 -4.99061 2.59216
head 17.6724 -1.97724 0.627734
rclavicle -4.06266e-015 -6.36111e-015
rhumerus -102.304 20.4523 -103.057
rradius 101.012
rwrist -59.6338
rhand 8.33146 -68.6006
rfingers 7.12502
rthumb 33.5421 -624.515
lclavicle -4.06266e-015 -6.36111e-015
lhumerus -98.2959 -25.5115 100.778
lradius 107.205
lwrist 83.5213
lhand -13.7902 13.6192
lfingers 7.12502
lthumb 12.3314 43.2356
rfemur 0 0 0
rtibia 0
rfoot 0 0
rtoes 0
lfemur -7.11389 -5.26983 -12.0738
ltibia 21.6452
lfoot -21.6525 13.4332
ltoes -56.198
225
root -0.859665 18.7327 5.63628 3.23621 -2.01386 -1.41106
lowerback 9.45246 0.949793 -0.871831
upperback 4.62313 1.19542 0.957859
thorax -0.543034 0.572818 1.36193
lowerneck -13.9342 -2.87471 -2.17562
upperneck 41.2326 -4.921 2.70325
head 17.7327 -1.96246 0.725817
rclavicle 1.12065e-014 -4.82053e-015
rhumerus -101.664 21.5404 -102.648
rradius 100.868
rwrist -58.6616
rhand 8.17678 -68.6649
rfingers 7.12502
rthumb 33.3951 -624.419
lclavicle 1.12065e-014 -4.82053e-015
lhumerus -97.5582 -26.6091 100.316
lradius 107.117
lwrist 82.3844
lhand -13.3077 13.7115
lfingers 7.12502
lthumb 12.7965 43.2993
rfemur 0 0 0
rtibia 0
rfoot 0 0
rtoes 0
lfemur -7.18932 -5.10681 -11.9918
ltibia 21.5802
lfoot -21.4053 13.269
ltoes -56.2954
226
root -0.865327 18.7338 5.6293 3.28492 -1.8073 -1.42425
lowerback 9.47474 0.859314 -1.04281
upperback 4.58415 1.06341 1.07327
thorax -0.596418 0.504005 1.58963
lowerneck -13.941 -2.84326 -2.30579
upperneck 41.2886 -4.83519 2.70867
head 17.7686 -1.94739 0.768103
rclavicle -1.68967e-015 -7.65321e-015
rhumerus -101.048 22.598 -102.265
rradius 100.709
rwrist -57.7811
rhand 7.41321 -68.7056
rfingers 7.12502
rthumb 32.6689 -624.225
lclavicle -1.68967e-015 -7.65321e-015
lhumerus -96.6982 -27.6348 99.8855
lradius 106.875
lwrist 81.4478
lhand -13.0835 13.616
lfingers 7.12502
lthumb 13.0127 43.1901
rfemur 0 0 0
rtibia 0
rfoot 0 0
rtoes 0
lfemur -7.28748 -4.93435 -11.9034
ltibia 21.526
lfoot -21.1638 12.9693
ltoes -56.4581
227
root -0.864864 18.7354 5.62085 3.33209 -1.806 -1.40093
lowerback 9.4984 0.831604 -1.19096
upperback 4.55052 1.01548 1.1526
thorax -0.646073 0.477832 1.75919
lowerneck -13.9519 -2.82115 -2.36948
upperneck 41.358 -4.75535 2.63971
head 17.8079 -1.93435 0.762948
rclavicle 2.73329e-016 9.93923e-016
rhumerus -100.528 23.7114 -101.995
rradius 100.503
rwrist -57.0035
rhand 6.59627 -68.7151
rfingers 7.12502
rthumb 31.8913 -624.057
lclavicle 2.73329e-016 9.93923e-016
lhumerus -95.8015 -28.6507 99.4652
lradius 106.679
lwrist 80.9226
lhand -13.0808 13.5356
lfingers 7.12502
lthumb 13.0154 43.1096
rfemur 0 0 0
rtibia 0
rfoot 0 0
rtoes 0
lfemur -7.35006 -4.87087 -11.9173
ltibia 21.4909
lfoot -21.1066 12.9745
ltoes -56.6284
